<svg xmlns="http://www.w3.org/2000/svg" width="40" height="32" viewBox="0 0 40 32"><rect width="100%" height="100%" fill="#DDDDDD"/><path fill="#999999" d="M7.705 16.715h1.76v-1.89q0-.27.04-.59l-1.8 2.48Zm2.62 0h.73v.57q0 .08-.05.14-.05.06-.15.06h-.53v1.41h-.86v-1.41h-2.44q-.1 0-.17-.06-.08-.07-.1-.16l-.1-.5 2.74-3.66h.93v3.61Zm5.38-.71q0 .75-.17 1.31-.16.56-.44.92-.29.37-.68.55-.39.17-.84.17-.45 0-.84-.17-.39-.18-.67-.55-.28-.36-.44-.92-.16-.56-.16-1.31 0-.76.16-1.32.16-.55.44-.92.28-.36.67-.54.39-.18.84-.18.45 0 .84.18.39.18.68.54.28.37.44.92.17.56.17 1.32Zm-1.02 0q0-.63-.1-1.04-.09-.41-.24-.66-.16-.24-.36-.34-.2-.1-.41-.1-.21 0-.41.1-.2.1-.35.34-.15.25-.24.66-.09.41-.09 1.04 0 .63.09 1.04.09.41.24.65.15.25.35.35.2.09.41.09.21 0 .41-.09.2-.1.36-.35.15-.24.24-.65.1-.41.1-1.04Zm7.37 1.57-.53.51-1.35-1.35-1.37 1.36-.52-.52 1.36-1.37-1.3-1.3.52-.52 1.3 1.3 1.3-1.29.53.52-1.3 1.3 1.36 1.36Zm3.33-2.76-.52-.09q.06-.42.23-.73.17-.32.43-.53.26-.21.59-.31.33-.11.72-.11.4 0 .72.12.32.11.55.31.23.2.35.48.12.27.12.58 0 .28-.06.49-.06.21-.18.37-.11.15-.29.26-.17.11-.38.18.52.16.77.5.26.34.26.84 0 .44-.16.77t-.43.56q-.28.22-.63.34-.36.11-.76.11-.44 0-.76-.1-.33-.1-.57-.29-.24-.2-.4-.48-.17-.29-.29-.66l.43-.18q.18-.07.33-.04.15.04.21.17.08.14.16.27.09.14.21.24.12.11.28.18.16.06.39.06.25 0 .44-.08.18-.08.31-.21.13-.14.19-.3.06-.16.06-.32 0-.21-.04-.38-.05-.17-.19-.29-.14-.12-.4-.19t-.7-.07v-.7q.36-.01.6-.07.24-.06.38-.18.15-.11.2-.27.06-.16.06-.35 0-.41-.23-.62-.23-.22-.61-.22-.17 0-.32.05t-.27.14q-.12.09-.2.21-.08.12-.12.27-.06.18-.17.24-.11.06-.31.03Zm6.12 3.16h1.49q.16 0 .25.09.1.09.1.24v.59h-3.97v-.33q0-.1.04-.21.04-.11.13-.2l1.76-1.76q.22-.22.39-.42.18-.21.29-.41.12-.2.18-.4.06-.21.06-.44 0-.21-.06-.36-.06-.16-.17-.27-.11-.11-.26-.16-.15-.06-.35-.06-.17 0-.32.05t-.27.14q-.11.09-.19.21t-.12.27q-.07.18-.18.24-.11.06-.31.03l-.52-.09q.06-.42.23-.73.17-.32.43-.53.26-.21.59-.31.34-.11.72-.11.4 0 .73.12.33.12.57.33.24.22.37.52.13.31.13.68 0 .32-.09.59-.1.27-.26.52-.15.25-.37.48-.21.23-.44.47l-1.3 1.34q.18-.06.37-.09t.35-.03Z"/></svg>